<svg width="150" height="150" viewBox="0 0 208 208" fill="none" xmlns="http://www.w3.org/2000/svg">
<path d="M151 151L58 59M58 59V99.7727M58 59L99.2159 59" stroke="#FFFFFF" stroke-width="8" stroke-linecap="round"/>
<path fill-rule="evenodd" clip-rule="evenodd" d="M84.2838 97.6233V202.716C84.2838 205.478 86.5224 207.716 89.2838 207.716H202.216C204.978 207.716 207.216 205.478 207.216 202.716V89.7838C207.216 87.0223 204.978 84.7838 202.216 84.7838H96.8993L104.986 92.7838H199.216V199.716H92.2838V105.537L84.2838 97.6233Z" fill="#FFFFFF"/>
<path fill-rule="evenodd" clip-rule="evenodd" d="M0 5C0 2.23856 2.23859 0 5 0H12.36V8H8V12.36H0V5ZM20.64 0H35.36V8H20.64V0ZM43.64 0H58.36V8H43.64V0ZM66.64 0H81.36V8H66.64V0ZM89.64 0H104.36V8H89.64V0ZM112.64 0H127.36V8H112.64V0ZM135.64 0H143C145.761 0 148 2.23859 148 5V12.36H140V8H135.64V0ZM0 35.36V20.64H8V35.36H0ZM148 20.64V35.36H140V20.64H148ZM0 58.36V43.64H8V58.36H0ZM148 43.64V58.36H140V43.64H148ZM0 81.36V66.64H8V81.36H0ZM148 66.64V81.36H140V66.64H148ZM0 104.36V89.64H8V104.36H0ZM0 127.36V112.64H8V127.36H0ZM0 143V135.64H8V140H12.36V148H5C2.23856 148 0 145.761 0 143ZM35.36 148H20.64V140H35.36V148ZM58.36 148H43.64V140H58.36V148ZM81.36 148H66.64V140H81.36V148Z" fill="#FFFFFF"/>
</svg>
